<svg xmlns="http://www.w3.org/2000/svg" viewBox="196 -4 512 512">
<!-- SVG created with Arrow, by QuiverAI (https://quiver.ai) -->
  <style type="text/css">.cls-0 {fill:#fd92f1;}
.cls-1 {fill:#6946ac;}
.cls-2 {fill:#3c245f;}</style>
  <path class="cls-0" d="m273 161 96-96c16 20.5 31 35 54 35s26 10 36 18c14.1-3.6 21 1.6 40-3s41-39 41-39l100.7 96c-31.4 28-34.7 39-34.7 58s-12 25-12 25 0 19 4 36c5 21.2 26 42 30 46v2l-92 101c-14-12-24-18-40-26s-30-4.4-39-14h-28c-28 0-50.2 16.9-64 32l-102.3-99c37.3-25 32.3-58 32.3-58l12-22 4-6-4-34-34-52z"/>
  <polygon class="cls-1" points="350 16 220 136 258 176 383 56"/>
  <polygon class="cls-1" points="531 61 569 22 690 140.8 652 181"/>
  <polygon class="cls-1" points="212 364 334 486 374 445.4 253 322"/>
  <polygon class="cls-1" points="524 451 565 492 686 371 646 328"/>
  <path d="m695.7 136.2-120.9-119.6c-2.3-2.6-6.1-2.2-8.1 0l-42.5 41.1c-2.3 2.2-2.3 5.8-0.1 8l9 9.3c-24.8 23.4-41.2 29-62.1 29.8l-14.2 1.2c-6-6.1-15.3-13.1-30.7-13.6-13.4-0.5-23.3-5.9-44.1-25.6l6-6.1c2.2-2.2 2.3-5.8 0.1-8l-41.8-42.1c-2.2-2.4-5.7-2.4-7.8-0.2l-124.3 119.5c-2.2 2.1-2.2 5.8 0 7.9l41.1 42.5c2.2 2.3 5.7 2.4 7.8 0.2l10.4-10c12 11.5 28.5 29.5 29 61.9 0.1 3.9 0.7 11.4 1 16.2-3.4 2.8-11 11-13 23.8-1.5 9.8 1.5 21.6-20.5 45.8-3.8 3.8-4.8 4.9-5.5 5.8l-7.6-7.6c-2.2-2.2-5.5-2.2-7.7 0l-41.8 43.9c-2.2 2.2-2.2 5.7 0 7.9l122.7 122.2c2.2 2.2 5.7 2.1 7.9 0l43.1-42.2c2.2-2.2 2.2-5.6 0.1-7.8l-9.8-9.8 2.6-2.6c23.4-20.9 39.2-25.7 56.5-26.2l13.9-0.7 3.7-0.8c15.1 13.6 22.5 13 36 14.2 11.7 1.1 23.5 7.6 41.4 24.4l-7.4 7.3c-2.2 2.2-2.1 5.8 0.1 8l41.2 41.4c2.2 2.2 5.2 2.4 7.9-0.4l122.8-119.6c2.2-2.2 1.9-5.6-0.2-8.1l-39.5-44.2c-2.2-2.4-5.7-3-7.9-0.8l-9.3 10.3c-9.1-8.8-26-27.8-27.8-54.2-0.5-7-0.2-12.7-1.3-20.6 12.7-12.3 12.5-24.1 13.2-33.2 0.7-10.9 5.9-21.8 23.7-44.3l6.9 6.5c2.2 2.2 5.6 2.3 7.8 0.1l39.9-41.8c2.2-2.2 2.4-6.7 0.1-9.1zm-435.9 30.5-33.1-32.1 114.2-111.9 33.8 32.9-114.9 111.1zm74.6 310.3-114.2-111.9 33.2-35.7 114.2 114.9-33.2 32.7zm101.9-87.1c-13.8-0.2-26.7 2.5-40.2 8.6-12.6 6.1-24.3 16-33.6 24l-89-89.2c16.5-16.5 27-32.1 27.9-50.3 0.4-7.7 1.6-14.1 7.9-22 3.5 5.5 5.7 7.6 13.6 15.5l19.8 19.2c5.8 4.8 12.8-2.5 8.4-8.5l-24.5-24.5c-2.9-3-9.5-9.5-10.1-24.2-0.4-28.3-11.5-46.2-23.5-61l-10.4-11.1 89.4-91.4c21 19.7 35 27.9 51.2 28.5 11 0.4 18.7 3.7 24.2 9.2l60.2 59.9c5.4 5.4 13.4-3.2 8.5-9.3l-48.7-46.2c17.7-0.4 29.3-3.1 42.5-10.1 9.9-5.5 20.5-13.4 29.8-23.5l92.3 87.3c-21.9 23-29.3 34.7-30.5 54.9-0.4 7.1-2.5 13-6.5 19.3-3.3-5.3-6-8-11.6-13.6l-38.5-38.5c-15.2-14.7-40.5-8.9-45.1 13.8l-36.2-37.7c-15.2-15.1-39.3-9.9-44.3 13.2-17.3-13.8-40.3-6.1-43 16.9-0.7 7.9 4.1 16.5 7 21.3-19.9 3.5-28.7 25.6-16.6 41.8l15.7 14.9c-14.5 2.5-26.8 19.2-18.2 37.4 2.1 4 4 5.4 7.3 8.8l65.5 66.7h-0.7v-0.1zm210.3-53.8 32.1 35.2-114.2 111.9-33.1-32.2 114.2-114 1-0.9zm-113.1 95.3c-13.1-12.5-26.1-21.5-39.1-26-13.4-3.4-23.8 0.9-36.8-10.9l-79.8-82.9c-2.8-2.8-4.8-7-3.4-13.1 2.7-11.4 16.2-13.2 23-6.1l46.5 45.3c5.8 4.2 13-2.4 8.7-8.2l-74.4-73.5c-3.4-3.5-5.2-8.6-2.7-15.1 3.8-9.1 15.9-11.5 23.2-4.3l72.4 72.5c4.8 4.8 13.3-1.2 8.7-7.5l-84.4-85.1c-4.8-5.1-6.9-8.6-5.4-16 2.5-11.1 16-14.6 23.8-7.2l88.3 88.4c5.8 5.2 13-1.7 8.6-8l-74.9-75.5c-2.8-2.7-4.3-6.3-3.9-12.1 2.2-13.4 16.7-16.1 24.1-8.6l74.4 75.8c5.3 5.3 13.1-1.3 9.2-7.7l-23.6-23.6c-8.9-9.6-4.7-23.6 8.4-24.5 3.6-0.2 7.4 1 10.7 4.1l44 44c10.2 10.5 8.9 17.5 9.8 31.4 2.1 24 14.1 45 33.2 64.6l-87.5 89.5-1.1 0.3zm116.2-257.7-112.4-112.3 33.2-32.7 113 112-33.1 33.1h-0.7z" fill="#0C355B"/>
</svg>